<svg xmlns="http://www.w3.org/2000/svg" viewBox="0 0 1200 630" role="img" aria-label="Basak Baptist Church anniversary preview image">
  <defs>
    <linearGradient id="silk" x1="0%" y1="0%" x2="100%" y2="100%">
      <stop offset="0%" stop-color="#fffdfb" />
      <stop offset="50%" stop-color="#f7f2ed" />
      <stop offset="100%" stop-color="#fffefd" />
    </linearGradient>
    <linearGradient id="wine" x1="0%" y1="0%" x2="100%" y2="100%">
      <stop offset="0%" stop-color="#bc1830" />
      <stop offset="100%" stop-color="#6e0915" />
    </linearGradient>
    <radialGradient id="petal" cx="50%" cy="50%" r="50%">
      <stop offset="0%" stop-color="#e43852" />
      <stop offset="100%" stop-color="#7a0b19" />
    </radialGradient>
    <filter id="shadow" x="-20%" y="-20%" width="140%" height="140%">
      <feDropShadow dx="0" dy="16" stdDeviation="18" flood-color="#5e0812" flood-opacity="0.18" />
    </filter>
  </defs>

  <rect width="1200" height="630" fill="url(#silk)" />
  <path d="M-40 120c180 30 330 10 480-20s330-48 520 6 280 58 300 44V36H-40z" fill="#ffffff" opacity="0.78" />
  <path d="M-20 444c152-32 312-18 474 26s324 58 500 12 220-52 266-34v182H-20z" fill="#f8f1ec" opacity="0.86" />
  <path d="M-50 280c204 42 330 40 530 2s402-64 760 0" fill="none" stroke="#f2e8e2" stroke-width="36" opacity="0.72" />
  <path d="M-10 120c144 30 292 44 442 22s314-62 542-28 200 44 256 34" fill="none" stroke="#efe5df" stroke-width="18" opacity="0.58" />
  <path d="M-10 514c176-36 344-40 502 4s366 74 718 8" fill="none" stroke="#eee3dd" stroke-width="24" opacity="0.62" />

  <g opacity="0.8" stroke="#23191b" stroke-width="2.2" fill="none">
    <path d="M944 100c64 24 96 66 118 132" />
    <path d="M994 80c-12 36-6 84 24 126" />
    <path d="M1024 138c34-16 86-16 128 10" />
    <path d="M942 162c44 8 82 38 108 82" />
    <path d="M1002 210c44 2 80 22 110 58" />
    <path d="M110 490c26 24 38 58 36 98" />
    <path d="M90 548c38-8 74 4 100 28" />
    <path d="M102 580c30 4 52 22 62 48" />
  </g>

  <g filter="url(#shadow)">
    <g transform="translate(114 88)">
      <circle cx="0" cy="0" r="86" fill="url(#petal)" />
      <circle cx="54" cy="26" r="62" fill="url(#petal)" />
      <circle cx="-54" cy="40" r="58" fill="url(#petal)" />
      <circle cx="12" cy="72" r="70" fill="url(#petal)" />
      <circle cx="-20" cy="-58" r="52" fill="url(#petal)" />
      <circle cx="42" cy="-44" r="46" fill="url(#petal)" />
      <circle cx="-62" cy="-16" r="44" fill="url(#petal)" />
    </g>
    <g transform="translate(1034 520)">
      <circle cx="0" cy="0" r="82" fill="url(#petal)" />
      <circle cx="50" cy="24" r="58" fill="url(#petal)" />
      <circle cx="-56" cy="28" r="54" fill="url(#petal)" />
      <circle cx="14" cy="66" r="66" fill="url(#petal)" />
      <circle cx="-8" cy="-54" r="50" fill="url(#petal)" />
      <circle cx="38" cy="-34" r="44" fill="url(#petal)" />
      <circle cx="-58" cy="-10" r="40" fill="url(#petal)" />
    </g>
    <g fill="#31412a" opacity="0.88">
      <ellipse cx="238" cy="172" rx="26" ry="62" transform="rotate(-28 238 172)" />
      <ellipse cx="166" cy="228" rx="22" ry="54" transform="rotate(18 166 228)" />
      <ellipse cx="966" cy="444" rx="22" ry="60" transform="rotate(-24 966 444)" />
      <ellipse cx="1070" cy="420" rx="24" ry="56" transform="rotate(28 1070 420)" />
    </g>
  </g>

  <rect x="246" y="146" width="708" height="340" rx="36" fill="#ffffff" fill-opacity="0.58" stroke="#ffffff" stroke-opacity="0.72" />

  <text x="600" y="220" text-anchor="middle" font-size="22" letter-spacing="6" fill="#8b0e1a" font-family="Georgia, serif">YOU ARE INVITED TO CELEBRATE WITH US</text>
  <text x="600" y="302" text-anchor="middle" font-size="66" fill="#6e0915" font-family="'Brush Script MT', 'Snell Roundhand', cursive">Basak Baptist Church</text>
  <text x="600" y="354" text-anchor="middle" font-size="34" fill="#23191b" font-family="Georgia, serif">Church Anniversary</text>
  <text x="600" y="404" text-anchor="middle" font-size="30" fill="#8b0e1a" font-family="Georgia, serif">Mind of Christ Be Committed</text>
  <text x="600" y="450" text-anchor="middle" font-size="24" fill="#55484b" font-family="Georgia, serif">May 4, 2026 • 8:00 AM • Nabunturan, Davao de Oro</text>
</svg>
